<?xml version="1.0" encoding="utf-8"?>
<!-- Generator: Adobe Illustrator 25.0.0, SVG Export Plug-In . SVG Version: 6.00 Build 0)  -->
<svg version="1.1" id="Layer_1" xmlns="http://www.w3.org/2000/svg" xmlns:xlink="http://www.w3.org/1999/xlink" x="0px" y="0px"
	 viewBox="0 0 309 84.6" style="enable-background:new 0 0 309 84.6;" xml:space="preserve">
<style type="text/css">
	.st0{fill:none;}
</style>
<rect y="-15.4" class="st0" width="309" height="100"/>
<path d="M295.1,0h-2.2c9,8.8,14.5,21,14.5,34.6c0,26.7-21.7,48.4-48.4,48.4v0c-13.1,0-25-5.2-33.7-13.7c8.7-9,14.1-21.2,14.1-34.7
	C239.3,21.2,234,9,225.4,0h-2.5C214.3,9,209,21.2,209,34.6c0,13.5,5.4,25.7,14.1,34.7c-8.7,8.5-20.6,13.7-33.7,13.7
	s-25-5.2-33.7-13.7h0c8.7-9,14.1-21.2,14.1-34.7c0-13.4-5.3-25.6-13.9-34.6h-2.5c-8.6,9-13.9,21.2-13.9,34.6
	c0,13.5,5.4,25.7,14.1,34.7c-8.7,8.5-20.6,13.7-33.7,13.7s-25-5.2-33.7-13.7v0c8.7-9,14.1-21.2,14.1-34.7C100,21.2,94.7,9,86.1,0
	h-2.5C75,9,69.7,21.2,69.7,34.6c0,13.5,5.4,25.7,14.1,34.7C75,77.7,63.1,83,50,83C23.3,83,1.6,61.3,1.6,34.6C1.6,21,7.2,8.8,16.1,0
	h-2.2C5.3,9,0,21.2,0,34.6c0,27.6,22.4,50,50,50c13.5,0,25.8-5.4,34.8-14.2c9,8.8,21.3,14.2,34.8,14.2c13.5,0,25.8-5.4,34.8-14.2
	c9,8.8,21.3,14.2,34.8,14.2c13.5,0,25.8-5.4,34.8-14.2c9,8.8,21.3,14.2,34.8,14.2c27.6,0,50-22.4,50-50C309,21.2,303.7,9,295.1,0z
	 M71.2,34.6c0-13,5.2-24.9,13.6-33.6c8.4,8.7,13.6,20.6,13.6,33.6c0,13-5.2,24.9-13.6,33.6C76.4,59.4,71.2,47.6,71.2,34.6z
	 M140.9,34.6c0-13,5.2-24.9,13.6-33.6c8.4,8.7,13.6,20.6,13.6,33.6c0,13-5.2,24.9-13.6,33.6C146.1,59.4,140.9,47.6,140.9,34.6z
	 M210.6,34.6c0-13,5.2-24.9,13.6-33.6c8.4,8.7,13.6,20.6,13.6,33.6c0,13-5.2,24.9-13.6,33.6C215.8,59.4,210.6,47.6,210.6,34.6z"/>
</svg>
